<svg width="200" height="45" viewBox="0 0 200 45" fill="none" xmlns="http://www.w3.org/2000/svg">
<path d="M0.416992 37.1465V35.2605H8.61872V37.1465H5.67634V44.8686H3.36411V37.1465H0.416992ZM11.4987 44.8686V35.2605H18.2648V37.1465H13.8441V39.1167H17.9189V41.0074H13.8441V42.9827H18.2648V44.8686H11.4987ZM30.2765 38.7416H27.9073C27.8758 38.5008 27.8109 38.2834 27.7129 38.0895C27.615 37.8956 27.4856 37.7298 27.3245 37.5922C27.1634 37.4546 26.9723 37.3497 26.7513 37.2779C26.5332 37.2026 26.2916 37.1652 26.0262 37.1652C25.5557 37.1652 25.1497 37.2794 24.8086 37.5077C24.4706 37.736 24.21 38.0661 24.0268 38.4975C23.8467 38.9293 23.7567 39.4515 23.7567 40.0645C23.7567 40.7026 23.8483 41.2375 24.0315 41.669C24.2179 42.0975 24.4785 42.4213 24.8133 42.6402C25.1513 42.856 25.5509 42.964 26.0121 42.964C26.2712 42.964 26.5063 42.9311 26.718 42.8653C26.9328 42.7997 27.1208 42.7042 27.2819 42.5791C27.4461 42.451 27.5803 42.2962 27.6847 42.1147C27.792 41.9302 27.8662 41.7221 27.9073 41.4908L30.2765 41.5047C30.2354 41.9302 30.1106 42.3493 29.9021 42.7621C29.6967 43.1751 29.414 43.552 29.054 43.8927C28.6937 44.2305 28.2547 44.4995 27.7368 44.6996C27.2218 44.8998 26.6312 45 25.9648 45C25.0865 45 24.3 44.8093 23.6051 44.4277C22.9133 44.0428 22.3668 43.4832 21.9657 42.7481C21.5645 42.013 21.3639 41.1186 21.3639 40.0645C21.3639 39.0073 21.5677 38.1112 21.9751 37.3763C22.3826 36.6412 22.9338 36.0829 23.6287 35.7015C24.3237 35.3198 25.1023 35.1292 25.9648 35.1292C26.5521 35.1292 27.0954 35.2104 27.5946 35.3729C28.0936 35.5325 28.5329 35.767 28.9118 36.0766C29.2909 36.3832 29.5988 36.7601 29.8357 37.2073C30.0726 37.6548 30.2196 38.166 30.2765 38.7416ZM33.3531 44.8686V35.2605H35.6984V39.1167H39.5222V35.2605H41.8627V44.8686H39.5222V41.0074H35.6984V44.8686H33.3531ZM53.327 35.2605V44.8686H51.3369L47.4754 39.3234H47.414V44.8686H45.0684V35.2605H47.0869L50.9059 40.7963H50.9865V35.2605H53.327ZM65.6951 40.0645C65.6951 41.1216 65.4899 42.0177 65.0793 42.7528C64.6685 43.4877 64.1126 44.046 63.4115 44.4277C62.7134 44.8093 61.93 45 61.0612 45C60.1894 45 59.4044 44.8076 58.7063 44.4229C58.0083 44.0383 57.4539 43.48 57.0433 42.7481C56.636 42.013 56.4321 41.1186 56.4321 40.0645C56.4321 39.0073 56.636 38.1112 57.0433 37.3763C57.4539 36.6412 58.0083 36.0829 58.7063 35.7015C59.4044 35.3198 60.1894 35.1292 61.0612 35.1292C61.93 35.1292 62.7134 35.3198 63.4115 35.7015C64.1126 36.0829 64.6685 36.6412 65.0793 37.3763C65.4899 38.1112 65.6951 39.0073 65.6951 40.0645ZM63.2977 40.0645C63.2977 39.439 63.2076 38.9103 63.0276 38.4788C62.8506 38.0471 62.5948 37.7203 62.26 37.4982C61.9285 37.2761 61.5287 37.1652 61.0612 37.1652C60.597 37.1652 60.1974 37.2761 59.8626 37.4982C59.5278 37.7203 59.2703 38.0471 59.0903 38.4788C58.9133 38.9103 58.8249 39.439 58.8249 40.0645C58.8249 40.6901 58.9133 41.2186 59.0903 41.6503C59.2703 42.0818 59.5278 42.4088 59.8626 42.6307C60.1974 42.8528 60.597 42.964 61.0612 42.964C61.5287 42.964 61.9285 42.8528 62.26 42.6307C62.5948 42.4088 62.8506 42.0818 63.0276 41.6503C63.2076 41.2186 63.2977 40.6901 63.2977 40.0645ZM68.7992 44.8686V35.2605H71.1444V42.9827H75.1812V44.8686H68.7992ZM86.9109 40.0645C86.9109 41.1216 86.7057 42.0177 86.2951 42.7528C85.8845 43.4877 85.3284 44.046 84.6273 44.4277C83.9292 44.8093 83.1458 45 82.277 45C81.4052 45 80.6202 44.8076 79.9221 44.4229C79.224 44.0383 78.6697 43.48 78.2591 42.7481C77.8518 42.013 77.6478 41.1186 77.6478 40.0645C77.6478 39.0073 77.8518 38.1112 78.2591 37.3763C78.6697 36.6412 79.224 36.0829 79.9221 35.7015C80.6202 35.3198 81.4052 35.1292 82.277 35.1292C83.1458 35.1292 83.9292 35.3198 84.6273 35.7015C85.3284 36.0829 85.8845 36.6412 86.2951 37.3763C86.7057 38.1112 86.9109 39.0073 86.9109 40.0645ZM84.5135 40.0645C84.5135 39.439 84.4234 38.9103 84.2434 38.4788C84.0667 38.0471 83.8106 37.7203 83.4758 37.4982C83.1442 37.2761 82.7447 37.1652 82.277 37.1652C81.8128 37.1652 81.4132 37.2761 81.0784 37.4982C80.7436 37.7203 80.486 38.0471 80.306 38.4788C80.1291 38.9103 80.0407 39.439 80.0407 40.0645C80.0407 40.6901 80.1291 41.2186 80.306 41.6503C80.486 42.0818 80.7436 42.4088 81.0784 42.6307C81.4132 42.8528 81.8128 42.964 82.277 42.964C82.7447 42.964 83.1442 42.8528 83.4758 42.6307C83.8106 42.4088 84.0667 42.0818 84.2434 41.6503C84.4234 41.2186 84.5135 40.6901 84.5135 40.0645ZM96.3829 38.3991C96.3293 38.2019 96.2502 38.0284 96.146 37.8784C96.0418 37.7251 95.9139 37.5952 95.7624 37.489C95.6105 37.3826 95.4368 37.3028 95.241 37.2497C95.0451 37.1934 94.8304 37.1652 94.5968 37.1652C94.126 37.1652 93.7184 37.2779 93.3743 37.503C93.0332 37.728 92.7693 38.0566 92.583 38.4881C92.3965 38.9166 92.3033 39.4375 92.3033 40.0505C92.3033 40.6667 92.3935 41.1921 92.5735 41.6269C92.7535 42.0616 93.014 42.3931 93.3554 42.6215C93.6965 42.8498 94.1101 42.964 94.5968 42.964C95.0262 42.964 95.3895 42.8952 95.6863 42.7576C95.9864 42.6167 96.214 42.4181 96.3688 42.1616C96.5236 41.9051 96.6009 41.6034 96.6009 41.2562L97.0367 41.3078H94.6773V39.614H98.8611V40.8855C98.8611 41.7455 98.6763 42.4821 98.3068 43.0953C97.9402 43.7083 97.4347 44.1789 96.7905 44.5074C96.1493 44.8357 95.4117 45 94.5776 45C93.6522 45 92.8388 44.8013 92.1377 44.4042C91.4363 44.0069 90.8898 43.4408 90.4981 42.706C90.1066 41.9676 89.9107 41.0919 89.9107 40.0787C89.9107 39.2905 90.0291 38.5913 90.2659 37.9816C90.5028 37.3683 90.8329 36.8494 91.2563 36.4239C91.6828 35.9986 92.1755 35.6763 92.7346 35.4574C93.2967 35.2386 93.9017 35.1292 94.5492 35.1292C95.1116 35.1292 95.6342 35.2089 96.1176 35.3682C96.6039 35.5277 97.0337 35.7531 97.4065 36.044C97.7824 36.3349 98.087 36.6804 98.3209 37.0807C98.5545 37.481 98.7 37.9205 98.7569 38.3991H96.3829ZM104.323 35.2605V44.8686H101.978V35.2605H104.323ZM107.53 44.8686V35.2605H114.296V37.1465H109.876V39.1167H113.95V41.0074H109.876V42.9827H114.296V44.8686H107.53ZM122.745 38.1411C122.713 37.7968 122.573 37.5296 122.323 37.3387C122.077 37.1448 121.725 37.0478 121.266 37.0478C120.963 37.0478 120.711 37.0869 120.508 37.1652C120.306 37.2435 120.155 37.3511 120.053 37.489C119.953 37.6234 119.9 37.7781 119.897 37.9534C119.891 38.0972 119.919 38.2238 119.982 38.3333C120.049 38.4427 120.144 38.5397 120.267 38.6242C120.393 38.7054 120.545 38.7775 120.722 38.84C120.899 38.9026 121.097 38.9574 121.319 39.0043L122.153 39.192C122.633 39.2952 123.056 39.4328 123.422 39.6048C123.792 39.7768 124.102 39.9817 124.351 40.2193C124.604 40.4571 124.795 40.7308 124.924 41.0403C125.054 41.3499 125.12 41.6972 125.123 42.0818C125.12 42.6885 124.965 43.2095 124.659 43.6442C124.353 44.0789 123.912 44.412 123.337 44.6435C122.765 44.8749 122.075 44.9905 121.266 44.9905C120.455 44.9905 119.747 44.8701 119.144 44.6293C118.54 44.3885 118.071 44.0226 117.737 43.5316C117.402 43.0405 117.23 42.4196 117.22 41.669H119.466C119.485 41.9786 119.569 42.2366 119.717 42.4432C119.866 42.6496 120.069 42.8059 120.328 42.9124C120.59 43.0186 120.894 43.0719 121.238 43.0719C121.554 43.0719 121.823 43.0295 122.044 42.945C122.268 42.8608 122.44 42.7434 122.56 42.5933C122.68 42.4432 122.742 42.271 122.745 42.0771C122.742 41.8958 122.685 41.741 122.574 41.6127C122.464 41.4813 122.293 41.3689 122.062 41.2749C121.835 41.1779 121.544 41.089 121.191 41.0074L120.177 40.7729C119.337 40.5822 118.675 40.2741 118.191 39.8488C117.708 39.4203 117.468 38.8415 117.471 38.1129C117.468 37.5187 117.629 36.9979 117.954 36.5505C118.28 36.1033 118.73 35.7546 119.305 35.5043C119.88 35.254 120.535 35.1292 121.271 35.1292C122.023 35.1292 122.675 35.2558 123.228 35.509C123.784 35.7593 124.215 36.111 124.522 36.5647C124.828 37.0181 124.984 37.5436 124.991 38.1411H122.745ZM132.644 44.8686V35.2605H136.652C137.379 35.2605 138.006 35.4011 138.533 35.6825C139.064 35.961 139.473 36.3503 139.76 36.8509C140.048 37.3482 140.191 37.9267 140.191 38.5868C140.191 39.2498 140.045 39.8299 139.751 40.3272C139.46 40.8215 139.045 41.2046 138.505 41.4766C137.965 41.7488 137.323 41.8849 136.581 41.8849H134.108V40.0552H136.145C136.499 40.0552 136.794 39.9942 137.031 39.8723C137.271 39.7501 137.453 39.5796 137.576 39.3608C137.699 39.1387 137.761 38.8807 137.761 38.5868C137.761 38.2896 137.699 38.0332 137.576 37.8173C137.453 37.5984 137.271 37.4294 137.031 37.3105C136.791 37.1919 136.496 37.1323 136.145 37.1323H134.989V44.8686H132.644ZM145.285 35.2605L147.455 42.2977H147.536L149.706 35.2605H152.331L149.057 44.8686H145.934L142.66 35.2605H145.285ZM154.793 37.1465V35.2605H162.995V37.1465H160.052V44.8686H157.74V37.1465H154.793ZM170.476 44.8686V35.2605H172.821V42.9827H176.858V44.8686H170.476ZM178.303 37.1465V35.2605H186.505V37.1465H183.563V44.8686H181.251V37.1465H178.303ZM192.972 44.8686H189.385V35.2605H192.967C193.956 35.2605 194.807 35.4527 195.521 35.8376C196.238 36.219 196.791 36.7696 197.179 37.489C197.568 38.2051 197.762 39.0621 197.762 40.0597C197.762 41.0608 197.568 41.9208 197.179 42.6402C196.794 43.3596 196.243 43.9117 195.526 44.2963C194.809 44.6779 193.958 44.8686 192.972 44.8686ZM191.731 42.8889H192.882C193.425 42.8889 193.885 42.7982 194.261 42.6167C194.64 42.4323 194.926 42.1334 195.118 41.7206C195.314 41.3046 195.412 40.7509 195.412 40.0597C195.412 39.3685 195.314 38.8181 195.118 38.4083C194.923 37.9955 194.634 37.6984 194.251 37.5169C193.872 37.3325 193.405 37.2402 192.849 37.2402H191.731V42.8889Z" fill="white"/>
<path d="M120.666 11.0068H99.4722V16.0749H120.666V11.0068Z" fill="white"/>
<path d="M121.145 27.0815L104.957 27.0421L99.4722 21.6572H121.145V27.0815Z" fill="white"/>
<path d="M63.3401 11.0068H42.1475V16.0749H63.3401V11.0068Z" fill="white"/>
<path d="M41.6675 27.0815L57.8564 27.0421L63.3402 21.6572H41.6675V27.0815Z" fill="white"/>
<path d="M63.34 5.38486L57.8564 0.000244141H42.1542H35.7474C32.7562 0.000244141 30.3097 2.42287 30.3097 5.38386V10.7157V11.979V21.3407H30.2701C27.3126 21.3407 26.8285 20.7078 20.3131 11.799C13.3947 2.33837 11.395 0.000244141 4.03856 0.000244141H0V27.0817H5.7185V5.74127H5.75858C8.51756 5.74127 8.72067 6.17575 15.7148 15.2432C22.5364 24.0875 24.8317 26.6467 30.3097 27.0284V27.0815H31.9893H36.0279V11.979V7.88497V7.48536C36.0402 7.47639 36.0528 7.46552 36.0659 7.45403C36.2741 6.28206 37.3133 5.38496 38.5534 5.38496H39.9828C40.6059 5.30956 41.3239 5.29904 42.1542 5.38496H42.5288L63.34 5.38486Z" fill="white"/>
<path d="M160.419 0.000244141H155.68H155.593L145.276 20.2718C144.683 21.4085 143.932 22.0789 142.481 22.0928C141.03 22.0789 140.28 21.4084 139.686 20.2718L129.369 0.000244141H129.282H123.12H123.091H123.004H120.659H104.957L99.4722 5.38486H114.298H115.226H124.199H124.26C124.977 5.38486 125.628 5.68583 126.089 6.16632L133.88 21.737C135.56 25.1023 137.759 27.4776 142.437 27.4776H142.481H142.524C147.203 27.4776 149.402 25.1023 151.082 21.737L158.873 6.16632C159.273 5.74982 159.814 5.46837 160.419 5.40074L182.936 5.32676L182.809 0.0253433L160.419 0.000244141Z" fill="white"/>
<path d="M81.3862 16.0746C82.106 17.0246 82.9224 17.762 83.6658 18.5296L91.9425 27.0815H99.7797L85.705 13.343L99.2205 0H91.2633L83.6658 8.0772C82.9148 8.87519 82.106 9.62136 81.3862 10.6107" fill="white"/>
<path fill-rule="evenodd" clip-rule="evenodd" d="M81.3861 10.611L71.5496 0.000244141H63.5123L77.0677 13.3427L63.0327 27.0815H70.8694L81.3861 16.0747L83.9318 13.3427L81.3861 10.611Z" fill="#FECB0A"/>
<path d="M180.947 0.000366211C172.493 0.000366211 166.954 1.45949 164.129 5.37611H177.578C178.618 5.32524 179.74 5.30607 180.947 5.30607C182.153 5.30607 183.275 5.32524 184.316 5.37611H197.765C194.94 1.45949 189.401 0.000366211 180.947 0.000366211ZM162.1 10.7683C161.964 11.7158 161.894 12.7353 161.894 13.8348C161.894 24.2501 168.007 27.669 180.947 27.669C193.887 27.669 200 24.2502 200 13.8348C200 12.7353 199.931 11.7158 199.794 10.7683H193.884C194.098 11.6453 194.205 12.6609 194.205 13.8348C194.205 21.3414 189.839 22.3635 180.947 22.3635C172.056 22.3635 167.689 21.3414 167.689 13.8348C167.689 12.6609 167.796 11.6453 168.01 10.7683H162.1Z" fill="white"/>
</svg>
